<?xml version="1.0" encoding="utf-8"?>
<!-- Generator: Adobe Illustrator 22.1.0, SVG Export Plug-In . SVG Version: 6.00 Build 0)  -->
<svg version="1.1" id="Capa_1" xmlns="http://www.w3.org/2000/svg" xmlns:xlink="http://www.w3.org/1999/xlink" x="0px" y="0px"
	 viewBox="0 0 180 38" style="enable-background:new 0 0 180 38;" xml:space="preserve">
<style type="text/css">
	.st0{fill:none;}
	.st1{fill:#614AD9;}
</style>
<g>
	<path class="st0" d="M114.1,17.8c-3.2,0-5.8,2.7-5.8,6c0,3.3,2.6,6,5.8,6v0c3.2,0,5.8-2.7,5.8-6C119.9,20.5,117.3,17.8,114.1,17.8z
		"/>
	<ellipse class="st0" cx="86.8" cy="23.8" rx="5.8" ry="6"/>
	<path class="st0" d="M12.8,17.8c-3.2,0-5.8,2.7-5.8,6s2.6,6,5.8,6h0c3.2,0,5.8-2.7,5.8-6S15.9,17.8,12.8,17.8z"/>
	<path class="st1" d="M12.8,10.5L12.8,10.5c-1.9,0-3.8,0.4-5.5,1.3L7,11.9V3.7C7,1.7,5.4,0,3.5,0C1.6,0,0,1.7,0,3.7v20.1
		c0,7.3,5.7,13.3,12.8,13.3c7,0,12.8-6,12.8-13.3C25.5,16.5,19.8,10.5,12.8,10.5z M12.8,29.9L12.8,29.9c-3.2,0-5.8-2.7-5.8-6
		s2.6-6,5.8-6c3.2,0,5.8,2.7,5.8,6S15.9,29.9,12.8,29.9z"/>
	<path class="st1" d="M86.8,10.5L86.8,10.5c-1.9,0-3.8,0.4-5.5,1.3L81,11.9V3.7c0-2-1.6-3.6-3.5-3.6C75.6,0,74,1.7,74,3.7v20.1
		c0,7.3,5.7,13.3,12.8,13.3c7,0,12.8-6,12.8-13.3C99.5,16.5,93.8,10.5,86.8,10.5z M86.8,29.9c-3.2,0-5.8-2.7-5.8-6s2.6-6,5.8-6
		c3.2,0,5.8,2.7,5.8,6S90,29.9,86.8,29.9z"/>
	<path class="st1" d="M67.1,10.5c-1.9,0-3.5,1.6-3.5,3.6v10.3h0c0,3.2-2.3,5.8-5.2,5.8s-5.2-2.6-5.2-5.8h0V14.1c0-2-1.6-3.6-3.5-3.6
		c-1.9,0-3.5,1.6-3.5,3.6v10.3c0,7,5.5,12.7,12.2,12.7c6.7,0,12.2-5.7,12.2-12.7V14.1C70.6,12.1,69,10.5,67.1,10.5z"/>
	<path class="st1" d="M142,10.5L142,10.5c-6.7,0-12.2,5.7-12.2,12.7v10.3c0,2,1.6,3.6,3.5,3.6c1.9,0,3.5-1.6,3.5-3.6V23.2h0
		c0-3.2,2.3-5.8,5.2-5.8c2.9,0,5.2,2.6,5.2,5.8h0v10.3c0,2,1.6,3.6,3.5,3.6c1.9,0,3.5-1.6,3.5-3.6V23.2
		C154.2,16.2,148.7,10.5,142,10.5z"/>
	<path class="st1" d="M114.1,10.5c-7,0-12.8,6-12.8,13.3c0,7,5.3,12.8,11.9,13.3c2.8,0.2,5.7-1.2,7.2-3.9l0,0.6
		c0,0.9,0.3,1.7,0.9,2.4c0.6,0.6,1.4,0.9,2.3,0.9c0.9,0,1.7-0.3,2.3-0.9c0.6-0.6,0.9-1.4,0.9-2.4v-10
		C126.9,16.5,121.2,10.5,114.1,10.5z M114.1,29.9L114.1,29.9c-3.2,0-5.8-2.7-5.8-6c0-3.3,2.6-6,5.8-6c3.2,0,5.8,2.7,5.8,6
		C119.9,27.1,117.3,29.9,114.1,29.9z"/>
	<path class="st1" d="M179.1,31.5l-7.7-8.3l7.1-7.1c1.2-1.2,1.3-3.3,0.1-4.6c-1.1-1.2-3.1-1.3-4.3-0.2c0,0-0.1,0.1-0.1,0.1l-9.9,9.9
		V3.7c0-2-1.6-3.6-3.5-3.6c-1.9,0-3.5,1.6-3.5,3.6v29.8c0,2,1.6,3.6,3.5,3.6c1.9,0,3.5-1.6,3.5-3.6v-8.6l10.2,11.1
		c1.1,1.2,3.1,1.3,4.3,0.2c0,0,0.1-0.1,0.1-0.1C180.2,34.9,180.3,32.8,179.1,31.5z"/>
	<path class="st1" d="M42.5,10.6c-3.2-0.5-6.2,1.1-7.8,3.8v-0.3c0-2-1.6-3.6-3.5-3.6c-1.9,0-3.5,1.6-3.5,3.6v19.2
		c0,2,1.6,3.6,3.5,3.6c1.9,0,3.5-1.6,3.5-3.6V22.7c0.2-3,2.4-5.4,5.2-5.4c0.4,0,0.8,0,1.1,0.1c1.8,0.5,3.6-0.6,4.1-2.5
		c0.1-0.3,0.1-0.6,0.1-1C45.3,12.3,44.1,10.9,42.5,10.6z"/>
</g>
</svg>
