<svg width="782" height="873" viewBox="0 0 782 873" fill="none" xmlns="http://www.w3.org/2000/svg">
<mask id="mask0_8_40" style="mask-type:alpha" maskUnits="userSpaceOnUse" x="0" y="0" width="782" height="873">
<rect width="782" height="873" fill="white"/>
</mask>
<g mask="url(#mask0_8_40)">
<rect x="1" y="-1" width="779" height="873" rx="74" fill="#6953DF"/>
<path d="M529.693 549.377C529.693 621.153 467.822 679.338 391.5 679.338C315.178 679.338 253.307 621.153 253.307 549.377C253.307 477.602 315.178 419.416 391.5 419.416C467.822 419.416 529.693 477.602 529.693 549.377Z" fill="white"/>
<path d="M122 98.1564C122 98.1564 122 69.2288 158.729 68.827C195.458 68.4253 195.458 98.1564 195.458 98.1564V548.945H122V98.1564Z" fill="white"/>
<path d="M323.092 330.472C323.092 311.396 339.536 295.931 359.821 295.931H402.06C422.345 295.931 438.789 311.396 438.789 330.472C438.789 349.549 422.345 365.014 402.06 365.014H359.821C339.536 365.014 323.092 349.549 323.092 330.472Z" fill="white"/>
<path d="M195.458 375.466C149.917 420.852 122 482.048 122 549.377C122 689.351 242.659 802.823 391.5 802.823C540.341 802.823 661 689.351 661 549.377C661 409.403 540.341 295.931 391.5 295.931C390.734 295.931 389.969 295.934 389.204 295.94V365.026C389.969 365.018 390.734 365.014 391.5 365.014C499.771 365.014 587.542 447.556 587.542 549.377C587.542 651.198 499.771 733.741 391.5 733.741C283.229 733.741 195.458 651.198 195.458 549.377C195.458 549.233 195.458 549.089 195.458 548.945V375.466Z" fill="white"/>
<path d="M711.826 352.404C705.776 360.058 693.814 364.229 686.413 361.428C677.094 357.901 675.043 349.856 673.496 344.298C671.95 338.739 686.558 338.982 699.162 326.363C711.767 313.744 716.836 346.066 711.826 352.404Z" fill="white"/>
<path d="M646.981 85.0397C654.844 109.398 708.373 302.477 700.729 306.209C693.084 309.942 693.833 312.051 684.555 318.399C675.277 324.747 674.042 322.471 668.389 327.193L666.464 321.769C651.667 280.878 595.856 126.594 588.569 105.78C580.157 81.7526 639.118 60.6814 646.981 85.0397Z" fill="white"/>
</g>
</svg>
