<svg xmlns="http://www.w3.org/2000/svg" width="1920" height="1080"><path d="M1003,511L872,699L1046,610Z" fill="rgb(125,110,208)" stroke="rgb(125,110,208)" stroke-width="1.51"/><path d="M711,470L706,624L872,699Z" fill="rgb(122,106,209)" stroke="rgb(122,106,209)" stroke-width="1.51"/><path d="M1003,511L711,470L872,699Z" fill="rgb(118,103,206)" stroke="rgb(118,103,206)" stroke-width="1.51"/><path d="M1046,610L1110,399L1003,511Z" fill="rgb(121,107,207)" stroke="rgb(121,107,207)" stroke-width="1.51"/><path d="M1003,511L820,164L711,470Z" fill="rgb(114,99,208)" stroke="rgb(114,99,208)" stroke-width="1.51"/><path d="M872,699L1115,806L1046,610Z" fill="rgb(137,122,214)" stroke="rgb(137,122,214)" stroke-width="1.51"/><path d="M1046,610L1259,545L1110,399Z" fill="rgb(127,112,210)" stroke="rgb(127,112,210)" stroke-width="1.51"/><path d="M706,624L665,727L872,699Z" fill="rgb(131,115,213)" stroke="rgb(131,115,213)" stroke-width="1.51"/><path d="M872,699L1054,911L1115,806Z" fill="rgb(148,133,218)" stroke="rgb(148,133,218)" stroke-width="1.51"/><path d="M633,646L665,727L706,624Z" fill="rgb(129,112,213)" stroke="rgb(129,112,213)" stroke-width="1.51"/><path d="M648,461L633,646L706,624Z" fill="rgb(119,103,209)" stroke="rgb(119,103,209)" stroke-width="1.51"/><path d="M711,470L648,461L706,624Z" fill="rgb(115,99,207)" stroke="rgb(115,99,207)" stroke-width="1.51"/><path d="M820,164L648,461L711,470Z" fill="rgb(114,97,210)" stroke="rgb(114,97,210)" stroke-width="1.51"/><path d="M1286,625L1259,545L1046,610Z" fill="rgb(137,121,213)" stroke="rgb(137,121,213)" stroke-width="1.51"/><path d="M818,1063L1054,911L872,699Z" fill="rgb(153,138,221)" stroke="rgb(153,138,221)" stroke-width="1.51"/><path d="M1494,631L1286,625L1496,709Z" fill="rgb(156,141,222)" stroke="rgb(156,141,222)" stroke-width="1.51"/><path d="M1115,806L1286,625L1046,610Z" fill="rgb(143,127,216)" stroke="rgb(143,127,216)" stroke-width="1.51"/><path d="M1110,399L820,164L1003,511Z" fill="rgb(116,100,208)" stroke="rgb(116,100,208)" stroke-width="1.51"/><path d="M1259,545L1271,368L1110,399Z" fill="rgb(131,115,213)" stroke="rgb(131,115,213)" stroke-width="1.51"/><path d="M1364,513L1271,368L1259,545Z" fill="rgb(136,121,214)" stroke="rgb(136,121,214)" stroke-width="1.51"/><path d="M1286,625L1364,513L1259,545Z" fill="rgb(139,124,214)" stroke="rgb(139,124,214)" stroke-width="1.51"/><path d="M1143,189L820,164L1110,399Z" fill="rgb(117,101,211)" stroke="rgb(117,101,211)" stroke-width="1.51"/><path d="M648,461L524,384L633,646Z" fill="rgb(114,98,209)" stroke="rgb(114,98,209)" stroke-width="1.51"/><path d="M420,1043L775,1092L665,727Z" fill="rgb(159,142,227)" stroke="rgb(159,142,227)" stroke-width="1.51"/><path d="M515,254L524,384L648,461Z" fill="rgb(113,95,211)" stroke="rgb(113,95,211)" stroke-width="1.51"/><path d="M1271,368L1143,189L1110,399Z" fill="rgb(128,110,214)" stroke="rgb(128,110,214)" stroke-width="1.51"/><path d="M665,727L818,1063L872,699Z" fill="rgb(146,130,220)" stroke="rgb(146,130,220)" stroke-width="1.51"/><path d="M1221,1098L1115,806L1054,911Z" fill="rgb(168,154,228)" stroke="rgb(168,154,228)" stroke-width="1.51"/><path d="M665,727L775,1092L818,1063Z" fill="rgb(160,144,226)" stroke="rgb(160,144,226)" stroke-width="1.51"/><path d="M298,689L665,727L633,646Z" fill="rgb(130,113,215)" stroke="rgb(130,113,215)" stroke-width="1.51"/><path d="M820,164L515,254L648,461Z" fill="rgb(112,95,212)" stroke="rgb(112,95,212)" stroke-width="1.51"/><path d="M1494,631L1462,484L1364,513Z" fill="rgb(145,131,217)" stroke="rgb(145,131,217)" stroke-width="1.51"/><path d="M1364,513L1462,484L1271,368Z" fill="rgb(140,124,217)" stroke="rgb(140,124,217)" stroke-width="1.51"/><path d="M1271,368L1324,101L1143,189Z" fill="rgb(131,113,217)" stroke="rgb(131,113,217)" stroke-width="1.51"/><path d="M1494,631L1364,513L1286,625Z" fill="rgb(147,132,218)" stroke="rgb(147,132,218)" stroke-width="1.51"/><path d="M1286,625L1115,806L1426,922Z" fill="rgb(161,146,224)" stroke="rgb(161,146,224)" stroke-width="1.51"/><path d="M1496,709L1286,625L1426,922Z" fill="rgb(165,150,226)" stroke="rgb(165,150,226)" stroke-width="1.51"/><path d="M959,1205L1054,911L818,1063Z" fill="rgb(170,156,229)" stroke="rgb(170,156,229)" stroke-width="1.51"/><path d="M775,1092L873,1173L818,1063Z" fill="rgb(172,157,231)" stroke="rgb(172,157,231)" stroke-width="1.51"/><path d="M959,1205L1221,1098L1054,911Z" fill="rgb(178,165,232)" stroke="rgb(178,165,232)" stroke-width="1.51"/><path d="M1143,189L1006,21L820,164Z" fill="rgb(114,97,213)" stroke="rgb(114,97,213)" stroke-width="1.51"/><path d="M820,164L641,67L515,254Z" fill="rgb(111,93,214)" stroke="rgb(111,93,214)" stroke-width="1.51"/><path d="M1293,-12L1006,21L1143,189Z" fill="rgb(124,105,218)" stroke="rgb(124,105,218)" stroke-width="1.51"/><path d="M1221,1098L1426,922L1115,806Z" fill="rgb(175,162,231)" stroke="rgb(175,162,231)" stroke-width="1.51"/><path d="M873,1173L959,1205L818,1063Z" fill="rgb(172,158,231)" stroke="rgb(172,158,231)" stroke-width="1.51"/><path d="M840,-147L641,67L820,164Z" fill="rgb(110,91,215)" stroke="rgb(110,91,215)" stroke-width="1.51"/><path d="M1394,75L1324,101L1271,368Z" fill="rgb(136,117,221)" stroke="rgb(136,117,221)" stroke-width="1.51"/><path d="M524,384L298,689L633,646Z" fill="rgb(117,101,210)" stroke="rgb(117,101,210)" stroke-width="1.51"/><path d="M233,425L298,689L524,384Z" fill="rgb(112,96,211)" stroke="rgb(112,96,211)" stroke-width="1.51"/><path d="M298,689L287,773L665,727Z" fill="rgb(134,116,219)" stroke="rgb(134,116,219)" stroke-width="1.51"/><path d="M775,1092L785,1369L873,1173Z" fill="rgb(172,157,231)" stroke="rgb(172,157,231)" stroke-width="1.51"/><path d="M324,904L420,1043L665,727Z" fill="rgb(152,134,226)" stroke="rgb(152,134,226)" stroke-width="1.51"/><path d="M873,1173L785,1369L959,1205Z" fill="rgb(172,158,231)" stroke="rgb(172,158,231)" stroke-width="1.51"/><path d="M287,773L324,904L665,727Z" fill="rgb(142,124,222)" stroke="rgb(142,124,222)" stroke-width="1.51"/><path d="M1426,922L1654,844L1496,709Z" fill="rgb(179,165,233)" stroke="rgb(179,165,233)" stroke-width="1.51"/><path d="M1424,1136L1488,1007L1426,922Z" fill="rgb(194,183,240)" stroke="rgb(194,183,240)" stroke-width="1.51"/><path d="M1424,1136L1426,922L1221,1098Z" fill="rgb(192,181,239)" stroke="rgb(192,181,239)" stroke-width="1.51"/><path d="M283,262L233,425L524,384Z" fill="rgb(111,93,213)" stroke="rgb(111,93,213)" stroke-width="1.51"/><path d="M641,67L528,30L515,254Z" fill="rgb(110,91,216)" stroke="rgb(110,91,216)" stroke-width="1.51"/><path d="M504,-85L528,30L641,67Z" fill="rgb(108,89,218)" stroke="rgb(108,89,218)" stroke-width="1.51"/><path d="M1624,237L1394,75L1271,368Z" fill="rgb(142,124,222)" stroke="rgb(142,124,222)" stroke-width="1.51"/><path d="M1324,101L1293,-12L1143,189Z" fill="rgb(131,111,220)" stroke="rgb(131,111,220)" stroke-width="1.51"/><path d="M1624,237L1271,368L1462,484Z" fill="rgb(145,128,220)" stroke="rgb(145,128,220)" stroke-width="1.51"/><path d="M1006,21L840,-147L820,164Z" fill="rgb(110,92,214)" stroke="rgb(110,92,214)" stroke-width="1.51"/><path d="M1394,75L1293,-12L1324,101Z" fill="rgb(136,115,223)" stroke="rgb(136,115,223)" stroke-width="1.51"/><path d="M451,1220L785,1369L775,1092Z" fill="rgb(172,156,233)" stroke="rgb(172,156,233)" stroke-width="1.51"/><path d="M324,904L353,1027L420,1043Z" fill="rgb(162,143,232)" stroke="rgb(162,143,232)" stroke-width="1.51"/><path d="M307,1065L353,1027L324,904Z" fill="rgb(163,144,233)" stroke="rgb(163,144,233)" stroke-width="1.51"/><path d="M283,262L524,384L515,254Z" fill="rgb(111,93,213)" stroke="rgb(111,93,213)" stroke-width="1.51"/><path d="M298,689L106,621L287,773Z" fill="rgb(130,111,219)" stroke="rgb(130,111,219)" stroke-width="1.51"/><path d="M1318,1304L1424,1136L1221,1098Z" fill="rgb(192,181,239)" stroke="rgb(192,181,239)" stroke-width="1.51"/><path d="M528,30L437,63L515,254Z" fill="rgb(109,90,216)" stroke="rgb(109,90,216)" stroke-width="1.51"/><path d="M307,152L283,262L515,254Z" fill="rgb(110,91,216)" stroke="rgb(110,91,216)" stroke-width="1.51"/><path d="M1165,-166L840,-147L1006,21Z" fill="rgb(113,95,215)" stroke="rgb(113,95,215)" stroke-width="1.51"/><path d="M528,30L504,-85L437,63Z" fill="rgb(108,88,218)" stroke="rgb(108,88,218)" stroke-width="1.51"/><path d="M1701,1029L1654,844L1488,1007Z" fill="rgb(197,186,242)" stroke="rgb(197,186,242)" stroke-width="1.51"/><path d="M1488,1007L1654,844L1426,922Z" fill="rgb(188,176,238)" stroke="rgb(188,176,238)" stroke-width="1.51"/><path d="M1496,709L1745,629L1494,631Z" fill="rgb(165,151,226)" stroke="rgb(165,151,226)" stroke-width="1.51"/><path d="M1792,570L1624,237L1462,484Z" fill="rgb(155,139,224)" stroke="rgb(155,139,224)" stroke-width="1.51"/><path d="M437,63L307,152L515,254Z" fill="rgb(109,90,216)" stroke="rgb(109,90,216)" stroke-width="1.51"/><path d="M283,262L126,423L233,425Z" fill="rgb(110,92,215)" stroke="rgb(110,92,215)" stroke-width="1.51"/><path d="M353,1027L307,1065L420,1043Z" fill="rgb(167,149,235)" stroke="rgb(167,149,235)" stroke-width="1.51"/><path d="M73,1074L307,1065L324,904Z" fill="rgb(164,145,234)" stroke="rgb(164,145,234)" stroke-width="1.51"/><path d="M73,1074L324,904L287,773Z" fill="rgb(153,134,229)" stroke="rgb(153,134,229)" stroke-width="1.51"/><path d="M959,1205L1301,1304L1221,1098Z" fill="rgb(183,171,235)" stroke="rgb(183,171,235)" stroke-width="1.51"/><path d="M451,1220L775,1092L420,1043Z" fill="rgb(172,155,234)" stroke="rgb(172,155,234)" stroke-width="1.51"/><path d="M1394,75L1436,-154L1293,-12Z" fill="rgb(138,117,225)" stroke="rgb(138,117,225)" stroke-width="1.51"/><path d="M1745,629L1462,484L1494,631Z" fill="rgb(156,141,223)" stroke="rgb(156,141,223)" stroke-width="1.51"/><path d="M389,1167L451,1220L420,1043Z" fill="rgb(171,153,236)" stroke="rgb(171,153,236)" stroke-width="1.51"/><path d="M307,1065L389,1167L420,1043Z" fill="rgb(171,153,236)" stroke="rgb(171,153,236)" stroke-width="1.51"/><path d="M1624,237L1509,59L1394,75Z" fill="rgb(146,126,226)" stroke="rgb(146,126,226)" stroke-width="1.51"/><path d="M1248,1449L1301,1304L959,1205Z" fill="rgb(184,171,235)" stroke="rgb(184,171,235)" stroke-width="1.51"/><path d="M1667,1205L1701,1029L1488,1007Z" fill="rgb(209,200,247)" stroke="rgb(209,200,247)" stroke-width="1.51"/><path d="M1293,-12L1165,-166L1006,21Z" fill="rgb(124,104,219)" stroke="rgb(124,104,219)" stroke-width="1.51"/><path d="M1195,-229L1165,-166L1293,-12Z" fill="rgb(128,108,221)" stroke="rgb(128,108,221)" stroke-width="1.51"/><path d="M1301,1304L1318,1304L1221,1098Z" fill="rgb(190,178,238)" stroke="rgb(190,178,238)" stroke-width="1.51"/><path d="M1248,1449L1318,1304L1301,1304Z" fill="rgb(190,179,239)" stroke="rgb(190,179,239)" stroke-width="1.51"/><path d="M437,63L219,-73L307,152Z" fill="rgb(107,88,219)" stroke="rgb(107,88,219)" stroke-width="1.51"/><path d="M840,-147L504,-85L641,67Z" fill="rgb(109,90,217)" stroke="rgb(109,90,217)" stroke-width="1.51"/><path d="M1654,844L1745,629L1496,709Z" fill="rgb(175,161,231)" stroke="rgb(175,161,231)" stroke-width="1.51"/><path d="M233,425L106,621L298,689Z" fill="rgb(116,99,214)" stroke="rgb(116,99,214)" stroke-width="1.51"/><path d="M55,306L126,423L283,262Z" fill="rgb(109,91,216)" stroke="rgb(109,91,216)" stroke-width="1.51"/><path d="M126,423L106,621L233,425Z" fill="rgb(111,93,213)" stroke="rgb(111,93,213)" stroke-width="1.51"/><path d="M1745,629L1792,570L1462,484Z" fill="rgb(160,146,224)" stroke="rgb(160,146,224)" stroke-width="1.51"/><path d="M1948,618L1792,570L1745,629Z" fill="rgb(174,160,230)" stroke="rgb(174,160,230)" stroke-width="1.51"/><path d="M1165,-166L892,-314L840,-147Z" fill="rgb(111,93,214)" stroke="rgb(111,93,214)" stroke-width="1.51"/><path d="M840,-147L499,-236L504,-85Z" fill="rgb(108,89,217)" stroke="rgb(108,89,217)" stroke-width="1.51"/><path d="M1436,-154L1195,-229L1293,-12Z" fill="rgb(133,113,223)" stroke="rgb(133,113,223)" stroke-width="1.51"/><path d="M1654,844L1869,776L1745,629Z" fill="rgb(184,172,235)" stroke="rgb(184,172,235)" stroke-width="1.51"/><path d="M1667,1205L1488,1007L1424,1136Z" fill="rgb(204,194,245)" stroke="rgb(204,194,245)" stroke-width="1.51"/><path d="M1318,1304L1667,1205L1424,1136Z" fill="rgb(201,190,243)" stroke="rgb(201,190,243)" stroke-width="1.51"/><path d="M785,1369L1248,1449L959,1205Z" fill="rgb(175,161,231)" stroke="rgb(175,161,231)" stroke-width="1.51"/><path d="M1848,91L1509,59L1624,237Z" fill="rgb(156,136,230)" stroke="rgb(156,136,230)" stroke-width="1.51"/><path d="M1909,-36L1436,-154L1509,59Z" fill="rgb(152,131,232)" stroke="rgb(152,131,232)" stroke-width="1.51"/><path d="M1509,59L1436,-154L1394,75Z" fill="rgb(142,121,227)" stroke="rgb(142,121,227)" stroke-width="1.51"/><path d="M1195,-229L892,-314L1165,-166Z" fill="rgb(119,100,217)" stroke="rgb(119,100,217)" stroke-width="1.51"/><path d="M126,423L-160,629L106,621Z" fill="rgb(113,95,215)" stroke="rgb(113,95,215)" stroke-width="1.51"/><path d="M62,140L55,306L283,262Z" fill="rgb(108,89,218)" stroke="rgb(108,89,218)" stroke-width="1.51"/><path d="M21,301L55,306L62,140Z" fill="rgb(108,88,218)" stroke="rgb(108,88,218)" stroke-width="1.51"/><path d="M504,-85L219,-73L437,63Z" fill="rgb(107,87,219)" stroke="rgb(107,87,219)" stroke-width="1.51"/><path d="M646,-422L499,-236L840,-147Z" fill="rgb(109,90,217)" stroke="rgb(109,90,217)" stroke-width="1.51"/><path d="M1870,818L1869,776L1654,844Z" fill="rgb(193,181,240)" stroke="rgb(193,181,240)" stroke-width="1.51"/><path d="M1733,1238L1667,1205L1318,1304Z" fill="rgb(206,197,246)" stroke="rgb(206,197,246)" stroke-width="1.51"/><path d="M307,1065L245,1262L389,1167Z" fill="rgb(171,152,237)" stroke="rgb(171,152,237)" stroke-width="1.51"/><path d="M389,1167L245,1262L451,1220Z" fill="rgb(171,153,236)" stroke="rgb(171,153,236)" stroke-width="1.51"/><path d="M451,1220L504,1498L785,1369Z" fill="rgb(172,155,234)" stroke="rgb(172,155,234)" stroke-width="1.51"/><path d="M73,1074L245,1262L307,1065Z" fill="rgb(171,151,238)" stroke="rgb(171,151,238)" stroke-width="1.51"/><path d="M1870,818L1654,844L1701,1029Z" fill="rgb(198,187,242)" stroke="rgb(198,187,242)" stroke-width="1.51"/><path d="M55,306L21,301L126,423Z" fill="rgb(109,90,217)" stroke="rgb(109,90,217)" stroke-width="1.51"/><path d="M-36,999L73,1074L287,773Z" fill="rgb(157,136,233)" stroke="rgb(157,136,233)" stroke-width="1.51"/><path d="M62,140L283,262L307,152Z" fill="rgb(108,89,218)" stroke="rgb(108,89,218)" stroke-width="1.51"/><path d="M2100,1220L1870,818L1701,1029Z" fill="rgb(218,210,252)" stroke="rgb(218,210,252)" stroke-width="1.51"/><path d="M1924,367L1823,234L1792,570Z" fill="rgb(167,152,230)" stroke="rgb(167,152,230)" stroke-width="1.51"/><path d="M1792,570L1823,234L1624,237Z" fill="rgb(161,145,229)" stroke="rgb(161,145,229)" stroke-width="1.51"/><path d="M-36,999L287,773L106,621Z" fill="rgb(141,120,225)" stroke="rgb(141,120,225)" stroke-width="1.51"/><path d="M281,-185L219,-73L504,-85Z" fill="rgb(107,87,220)" stroke="rgb(107,87,220)" stroke-width="1.51"/><path d="M219,-73L62,140L307,152Z" fill="rgb(107,87,220)" stroke="rgb(107,87,220)" stroke-width="1.51"/><path d="M245,1262L504,1498L451,1220Z" fill="rgb(171,153,236)" stroke="rgb(171,153,236)" stroke-width="1.51"/><path d="M785,1369L504,1498L1248,1449Z" fill="rgb(172,158,231)" stroke="rgb(172,158,231)" stroke-width="1.51"/><path d="M1869,776L1948,618L1745,629Z" fill="rgb(182,170,235)" stroke="rgb(182,170,235)" stroke-width="1.51"/><path d="M1995,777L1948,618L1869,776Z" fill="rgb(190,179,239)" stroke="rgb(190,179,239)" stroke-width="1.51"/><path d="M1948,618L1924,367L1792,570Z" fill="rgb(171,156,229)" stroke="rgb(171,156,229)" stroke-width="1.51"/><path d="M219,-73L-70,-90L62,140Z" fill="rgb(105,84,223)" stroke="rgb(105,84,223)" stroke-width="1.51"/><path d="M499,-236L281,-185L504,-85Z" fill="rgb(107,88,219)" stroke="rgb(107,88,219)" stroke-width="1.51"/><path d="M1870,818L1995,777L1869,776Z" fill="rgb(196,186,242)" stroke="rgb(196,186,242)" stroke-width="1.51"/><path d="M1667,1205L1733,1238L1701,1029Z" fill="rgb(213,205,250)" stroke="rgb(213,205,250)" stroke-width="1.51"/><path d="M1248,1449L1733,1238L1318,1304Z" fill="rgb(198,188,242)" stroke="rgb(198,188,242)" stroke-width="1.51"/><path d="M73,1074L86,1325L245,1262Z" fill="rgb(170,151,238)" stroke="rgb(170,151,238)" stroke-width="1.51"/><path d="M-160,629L-36,999L106,621Z" fill="rgb(135,114,224)" stroke="rgb(135,114,224)" stroke-width="1.51"/><path d="M1924,367L1848,91L1823,234Z" fill="rgb(168,150,234)" stroke="rgb(168,150,234)" stroke-width="1.51"/><path d="M1823,234L1848,91L1624,237Z" fill="rgb(162,143,232)" stroke="rgb(162,143,232)" stroke-width="1.51"/><path d="M892,-314L646,-422L840,-147Z" fill="rgb(110,91,215)" stroke="rgb(110,91,215)" stroke-width="1.51"/><path d="M499,-236L82,-300L281,-185Z" fill="rgb(106,86,220)" stroke="rgb(106,86,220)" stroke-width="1.51"/><path d="M1372,-431L646,-422L892,-314Z" fill="rgb(111,93,214)" stroke="rgb(111,93,214)" stroke-width="1.51"/><path d="M1372,-431L892,-314L1195,-229Z" fill="rgb(123,104,219)" stroke="rgb(123,104,219)" stroke-width="1.51"/><path d="M1948,618L2193,457L1924,367Z" fill="rgb(172,158,231)" stroke="rgb(172,158,231)" stroke-width="1.51"/><path d="M2100,1220L1995,777L1870,818Z" fill="rgb(212,203,249)" stroke="rgb(212,203,249)" stroke-width="1.51"/><path d="M-229,700L-160,629L-270,706Z" fill="rgb(127,107,220)" stroke="rgb(127,107,220)" stroke-width="1.51"/><path d="M21,301L-160,629L126,423Z" fill="rgb(110,91,215)" stroke="rgb(110,91,215)" stroke-width="1.51"/><path d="M1436,-154L1372,-431L1195,-229Z" fill="rgb(135,114,224)" stroke="rgb(135,114,224)" stroke-width="1.51"/><path d="M1916,-367L1472,-370L1436,-154Z" fill="rgb(152,131,232)" stroke="rgb(152,131,232)" stroke-width="1.51"/><path d="M245,1262L86,1325L504,1498Z" fill="rgb(171,152,237)" stroke="rgb(171,152,237)" stroke-width="1.51"/><path d="M-81,1190L86,1325L73,1074Z" fill="rgb(170,150,239)" stroke="rgb(170,150,239)" stroke-width="1.51"/><path d="M1472,-370L1372,-431L1436,-154Z" fill="rgb(141,120,226)" stroke="rgb(141,120,226)" stroke-width="1.51"/><path d="M1848,91L1909,-36L1509,59Z" fill="rgb(161,140,235)" stroke="rgb(161,140,235)" stroke-width="1.51"/><path d="M1924,367L1915,18L1848,91Z" fill="rgb(169,151,236)" stroke="rgb(169,151,236)" stroke-width="1.51"/><path d="M2065,-33L1915,18L1924,367Z" fill="rgb(171,151,238)" stroke="rgb(171,151,238)" stroke-width="1.51"/><path d="M-36,999L-81,1190L73,1074Z" fill="rgb(170,149,240)" stroke="rgb(170,149,240)" stroke-width="1.51"/><path d="M-160,629L-229,700L-36,999Z" fill="rgb(137,117,225)" stroke="rgb(137,117,225)" stroke-width="1.51"/><path d="M-270,706L-160,629L-329,378Z" fill="rgb(115,96,215)" stroke="rgb(115,96,215)" stroke-width="1.51"/><path d="M1915,18L1909,-36L1848,91Z" fill="rgb(169,148,238)" stroke="rgb(169,148,238)" stroke-width="1.51"/><path d="M-378,790L-81,1190L-36,999Z" fill="rgb(161,140,236)" stroke="rgb(161,140,236)" stroke-width="1.51"/><path d="M-229,700L-378,790L-36,999Z" fill="rgb(144,123,228)" stroke="rgb(144,123,228)" stroke-width="1.51"/><path d="M-329,378L-160,629L21,301Z" fill="rgb(109,91,216)" stroke="rgb(109,91,216)" stroke-width="1.51"/><path d="M-70,-90L219,-73L-41,-152Z" fill="rgb(105,84,223)" stroke="rgb(105,84,223)" stroke-width="1.51"/><path d="M-55,-131L-70,-90L-41,-152Z" fill="rgb(104,83,223)" stroke="rgb(104,83,223)" stroke-width="1.51"/><path d="M-247,72L-329,378L21,301Z" fill="rgb(107,88,219)" stroke="rgb(107,88,219)" stroke-width="1.51"/><path d="M-41,-152L219,-73L82,-300Z" fill="rgb(105,84,222)" stroke="rgb(105,84,222)" stroke-width="1.51"/><path d="M82,-300L219,-73L281,-185Z" fill="rgb(106,85,221)" stroke="rgb(106,85,221)" stroke-width="1.51"/><path d="M646,-422L82,-300L499,-236Z" fill="rgb(107,87,219)" stroke="rgb(107,87,219)" stroke-width="1.51"/><path d="M2245,481L2193,457L1948,618Z" fill="rgb(172,158,230)" stroke="rgb(172,158,230)" stroke-width="1.51"/><path d="M1915,18L2065,-33L1909,-36Z" fill="rgb(170,149,240)" stroke="rgb(170,149,240)" stroke-width="1.51"/><path d="M2245,481L1948,618L1995,777Z" fill="rgb(181,168,234)" stroke="rgb(181,168,234)" stroke-width="1.51"/><path d="M-247,72L62,140L-70,-90Z" fill="rgb(105,84,223)" stroke="rgb(105,84,223)" stroke-width="1.51"/><path d="M-247,72L21,301L62,140Z" fill="rgb(106,86,220)" stroke="rgb(106,86,220)" stroke-width="1.51"/><path d="M-55,-131L-66,-213L-70,-90Z" fill="rgb(104,83,223)" stroke="rgb(104,83,223)" stroke-width="1.51"/><path d="M-41,-152L-66,-213L-55,-131Z" fill="rgb(104,83,223)" stroke="rgb(104,83,223)" stroke-width="1.51"/><path d="M82,-300L-66,-213L-41,-152Z" fill="rgb(104,83,223)" stroke="rgb(104,83,223)" stroke-width="1.51"/><path d="M-66,-213L-247,72L-70,-90Z" fill="rgb(104,83,223)" stroke="rgb(104,83,223)" stroke-width="1.51"/><path d="M2210,13L2065,-33L1924,367Z" fill="rgb(171,151,238)" stroke="rgb(171,151,238)" stroke-width="1.51"/><path d="M1909,-36L1916,-367L1436,-154Z" fill="rgb(160,139,235)" stroke="rgb(160,139,235)" stroke-width="1.51"/><path d="M1472,-370L1916,-367L1372,-431Z" fill="rgb(151,129,231)" stroke="rgb(151,129,231)" stroke-width="1.51"/><path d="M1733,1238L2100,1220L1701,1029Z" fill="rgb(221,214,253)" stroke="rgb(221,214,253)" stroke-width="1.51"/><path d="M1248,1449L2001,1372L1733,1238Z" fill="rgb(211,202,248)" stroke="rgb(211,202,248)" stroke-width="1.51"/><path d="M2193,457L2210,13L1924,367Z" fill="rgb(171,154,235)" stroke="rgb(171,154,235)" stroke-width="1.51"/><path d="M2278,1010L2245,481L1995,777Z" fill="rgb(193,182,240)" stroke="rgb(193,182,240)" stroke-width="1.51"/><path d="M2001,1372L2100,1220L1733,1238Z" fill="rgb(225,219,255)" stroke="rgb(225,219,255)" stroke-width="1.51"/><path d="M-270,706L-378,790L-229,700Z" fill="rgb(133,112,223)" stroke="rgb(133,112,223)" stroke-width="1.51"/><path d="M-329,378L-378,790L-270,706Z" fill="rgb(121,101,218)" stroke="rgb(121,101,218)" stroke-width="1.51"/><path d="M-196,1411L-51,1502L86,1325Z" fill="rgb(170,149,240)" stroke="rgb(170,149,240)" stroke-width="1.51"/><path d="M86,1325L-51,1502L504,1498Z" fill="rgb(171,151,238)" stroke="rgb(171,151,238)" stroke-width="1.51"/><path d="M-196,1411L86,1325L-81,1190Z" fill="rgb(170,149,240)" stroke="rgb(170,149,240)" stroke-width="1.51"/><path d="M2030,-267L1916,-367L1909,-36Z" fill="rgb(170,149,240)" stroke="rgb(170,149,240)" stroke-width="1.51"/><path d="M-378,790L-196,1411L-81,1190Z" fill="rgb(170,149,240)" stroke="rgb(170,149,240)" stroke-width="1.51"/><path d="M2001,1372L2189,1190L2100,1220Z" fill="rgb(225,219,255)" stroke="rgb(225,219,255)" stroke-width="1.51"/><path d="M2100,1220L2278,1010L1995,777Z" fill="rgb(218,210,252)" stroke="rgb(218,210,252)" stroke-width="1.51"/><path d="M2065,-33L2030,-267L1909,-36Z" fill="rgb(170,149,240)" stroke="rgb(170,149,240)" stroke-width="1.51"/><path d="M2210,13L2030,-267L2065,-33Z" fill="rgb(170,149,240)" stroke="rgb(170,149,240)" stroke-width="1.51"/><path d="M2245,481L2210,13L2193,457Z" fill="rgb(172,155,234)" stroke="rgb(172,155,234)" stroke-width="1.51"/><path d="M2189,1190L2278,1010L2100,1220Z" fill="rgb(225,219,255)" stroke="rgb(225,219,255)" stroke-width="1.51"/><path d="M2189,1190L2311,1051L2278,1010Z" fill="rgb(225,219,255)" stroke="rgb(225,219,255)" stroke-width="1.51"/><path d="M2278,1010L2311,1051L2245,481Z" fill="rgb(203,193,244)" stroke="rgb(203,193,244)" stroke-width="1.51"/><path d="M2245,481L2285,-399L2210,13Z" fill="rgb(170,150,239)" stroke="rgb(170,150,239)" stroke-width="1.51"/><path d="M2210,13L2285,-399L2030,-267Z" fill="rgb(170,149,240)" stroke="rgb(170,149,240)" stroke-width="1.51"/><path d="M2030,-267L2285,-399L1916,-367Z" fill="rgb(170,149,240)" stroke="rgb(170,149,240)" stroke-width="1.51"/><path d="M1916,-367L2285,-399L1372,-431Z" fill="rgb(166,146,238)" stroke="rgb(166,146,238)" stroke-width="1.51"/><path d="M2311,1051L2285,-399L2245,481Z" fill="rgb(172,156,233)" stroke="rgb(172,156,233)" stroke-width="1.51"/></svg>