<svg width="416" height="104" viewBox="0 0 416 104" fill="none" xmlns="http://www.w3.org/2000/svg">
<path d="M7.656 82C6.71733 82 5.82133 81.8293 4.968 81.488C4.11467 81.104 3.368 80.6133 2.728 80.016C2.13067 79.4187 1.64 78.6933 1.256 77.84C0.914667 76.9867 0.744 76.0907 0.744 75.152V6.92799C0.744 5.94666 0.914667 5.05066 1.256 4.24C1.64 3.38667 2.13067 2.66133 2.728 2.064C3.368 1.424 4.11467 0.933329 4.968 0.591995C5.82133 0.250661 6.71733 0.0799942 7.656 0.0799942H37.032C40.1893 0.0799942 43.1333 0.677327 45.864 1.87199C48.6373 3.06666 51.048 4.688 53.096 6.736C55.144 8.784 56.744 11.1947 57.896 13.968C59.0907 16.6987 59.688 19.6427 59.688 22.8C59.688 25.744 59.1547 28.56 58.088 31.248C57.064 33.936 55.6347 36.368 53.8 38.544C56.5307 40.8907 58.6853 43.728 60.264 47.056C61.8853 50.3413 62.696 53.904 62.696 57.744C62.696 61.1573 62.0347 64.336 60.712 67.28C59.432 70.224 57.6613 72.784 55.4 74.96C53.1813 77.136 50.5573 78.864 47.528 80.144C44.5413 81.3813 41.32 82 37.864 82H7.656ZM14.632 46.544V68.112H37.352C38.9307 68.112 40.4027 67.8133 41.768 67.216C43.176 66.576 44.392 65.7227 45.416 64.656C46.4827 63.5893 47.3147 62.3733 47.912 61.008C48.5093 59.6427 48.808 58.2133 48.808 56.72C48.808 55.184 48.488 53.7973 47.848 52.56C47.2507 51.28 46.4187 50.2133 45.352 49.36C44.328 48.464 43.112 47.7813 41.704 47.312C40.3387 46.8 38.888 46.544 37.352 46.544H14.632ZM14.632 13.968V32.656H36.52C37.8 32.6133 38.9947 32.336 40.104 31.824C41.256 31.2693 42.2373 30.5653 43.048 29.712C43.9013 28.8587 44.5627 27.8773 45.032 26.768C45.5013 25.616 45.736 24.4427 45.736 23.248C45.736 21.968 45.48 20.7733 44.968 19.664C44.456 18.5547 43.752 17.5733 42.856 16.72C42.0027 15.8667 41 15.2053 39.848 14.736C38.696 14.224 37.48 13.968 36.2 13.968H14.632ZM85.456 75.152C85.456 76.0907 85.2853 76.9867 84.944 77.84C84.6027 78.6933 84.112 79.4187 83.472 80.016C82.8747 80.6133 82.1707 81.104 81.36 81.488C80.5493 81.8293 79.6747 82 78.736 82C77.7547 82 76.816 81.8293 75.92 81.488C75.0667 81.104 74.32 80.6133 73.68 80.016C73.04 79.4187 72.528 78.6933 72.144 77.84C71.76 76.9867 71.568 76.0907 71.568 75.152V54.48C71.568 50.0853 72.4 45.9467 74.064 42.064C75.7707 38.1813 78.0747 34.7893 80.976 31.888C83.8773 28.9867 87.2693 26.704 91.152 25.04C95.0347 23.3333 99.152 22.48 103.504 22.48H103.632C105.936 22.48 107.707 23.1413 108.944 24.464C110.224 25.744 110.864 27.3867 110.864 29.392C110.864 30.3733 110.672 31.2907 110.288 32.144C109.904 32.9973 109.371 33.744 108.688 34.384C108.048 34.9813 107.28 35.472 106.384 35.856C105.531 36.1973 104.613 36.368 103.632 36.368H103.504C101.072 36.368 98.7467 36.8373 96.528 37.776C94.352 38.7147 92.4533 39.9947 90.832 41.616C89.2107 43.2373 87.9093 45.136 86.928 47.312C85.9467 49.488 85.456 51.8133 85.456 54.288V75.152ZM132.084 53.264C132.084 55.44 132.468 57.488 133.236 59.408C134.047 61.2853 135.135 62.928 136.5 64.336C137.908 65.744 139.551 66.8533 141.428 67.664C143.348 68.4747 145.396 68.88 147.572 68.88C149.791 68.88 151.775 68.4747 153.524 67.664C155.273 66.8107 156.745 65.68 157.94 64.272C159.177 62.8213 160.116 61.136 160.756 59.216C161.439 57.296 161.78 55.248 161.78 53.072V29.392C161.78 28.4107 161.972 27.5147 162.356 26.704C162.74 25.8507 163.252 25.1253 163.892 24.528C164.575 23.888 165.343 23.3973 166.196 23.056C167.049 22.672 167.945 22.48 168.884 22.48C169.865 22.48 170.761 22.672 171.572 23.056C172.383 23.3973 173.087 23.888 173.684 24.528C174.324 25.1253 174.815 25.8507 175.156 26.704C175.497 27.5147 175.668 28.4107 175.668 29.392V52.88C175.668 56.976 174.964 60.8373 173.556 64.464C172.191 68.0907 170.271 71.2693 167.796 74C165.321 76.688 162.356 78.8213 158.9 80.4C155.444 81.9787 151.668 82.768 147.572 82.768C143.476 82.768 139.636 82 136.052 80.464C132.511 78.8853 129.417 76.752 126.772 74.064C124.127 71.376 122.036 68.24 120.5 64.656C118.964 61.072 118.196 57.2533 118.196 53.2V29.392C118.196 28.4107 118.367 27.5147 118.708 26.704C119.092 25.8507 119.583 25.1253 120.18 24.528C120.82 23.888 121.567 23.3973 122.42 23.056C123.273 22.672 124.169 22.48 125.108 22.48C126.047 22.48 126.943 22.672 127.796 23.056C128.649 23.3973 129.396 23.888 130.036 24.528C130.676 25.1253 131.167 25.8507 131.508 26.704C131.892 27.5147 132.084 28.4107 132.084 29.392V53.264ZM236.671 66.32H200.063L195.263 77.84C194.666 79.2053 193.791 80.2507 192.639 80.976C191.53 81.6587 190.292 82 188.927 82C187.988 82 186.986 81.7867 185.919 81.36C184.98 80.976 184.212 80.464 183.615 79.824C183.018 79.1413 182.57 78.3947 182.271 77.584C182.015 76.7733 181.908 75.8987 181.951 74.96C182.036 74.0213 182.271 73.104 182.655 72.208L211.903 4.30399C212.5 2.93866 213.354 1.89333 214.463 1.168C215.572 0.442663 216.852 0.0799942 218.303 0.0799942C219.668 0.0799942 220.906 0.442663 222.015 1.168C223.124 1.89333 223.978 2.91733 224.575 4.24L254.015 72.208C254.783 74 254.89 75.7707 254.335 77.52C253.823 79.2693 252.671 80.5493 250.879 81.36C249.983 81.7867 249.002 82 247.935 82C246.57 82 245.311 81.6373 244.159 80.912C243.007 80.1867 242.132 79.1627 241.535 77.84L236.671 66.32ZM205.631 52.432H230.911L218.367 22.288L205.631 52.432ZM260.69 52.24C260.69 48.016 261.501 44.0693 263.122 40.4C264.743 36.688 266.941 33.4453 269.714 30.672C272.487 27.8987 275.709 25.7227 279.378 24.144C283.09 22.5227 287.037 21.712 291.218 21.712C295.442 21.712 299.41 22.5227 303.122 24.144C306.834 25.7227 310.055 27.8987 312.786 30.672C315.559 33.4453 317.735 36.688 319.314 40.4C320.893 44.0693 321.682 48.016 321.682 52.24C321.682 56.4213 320.893 60.368 319.314 64.08C317.735 67.792 315.559 71.0347 312.786 73.808C310.055 76.5813 306.834 78.7787 303.122 80.4C299.41 81.9787 295.442 82.768 291.218 82.768C288.146 82.768 285.202 82.3413 282.386 81.488C279.613 80.592 277.01 79.3547 274.578 77.776V96.4C274.578 97.424 274.407 98.3627 274.066 99.216C273.767 100.112 273.319 100.88 272.722 101.52C272.125 102.16 271.399 102.672 270.546 103.056C269.735 103.44 268.818 103.632 267.794 103.632C266.813 103.632 265.895 103.44 265.042 103.056C264.189 102.672 263.442 102.16 262.802 101.52C262.162 100.88 261.65 100.112 261.266 99.216C260.882 98.3627 260.69 97.424 260.69 96.4V52.24ZM274.578 52.24C274.578 54.5013 275.005 56.656 275.858 58.704C276.754 60.7093 277.949 62.48 279.442 64.016C280.978 65.5093 282.749 66.704 284.754 67.6C286.759 68.4533 288.914 68.88 291.218 68.88C293.522 68.88 295.677 68.4533 297.682 67.6C299.73 66.704 301.501 65.5093 302.994 64.016C304.487 62.48 305.661 60.7093 306.514 58.704C307.367 56.656 307.794 54.5013 307.794 52.24C307.794 49.936 307.367 47.7813 306.514 45.776C305.661 43.728 304.487 41.9573 302.994 40.464C301.501 38.9707 299.73 37.7973 297.682 36.944C295.677 36.048 293.522 35.6 291.218 35.6C288.957 35.6 286.802 36.048 284.754 36.944C282.749 37.7973 280.978 38.9707 279.442 40.464C277.949 41.9573 276.754 43.728 275.858 45.776C275.005 47.7813 274.578 49.936 274.578 52.24ZM329.94 52.24C329.94 48.016 330.751 44.0693 332.372 40.4C333.993 36.688 336.191 33.4453 338.964 30.672C341.737 27.8987 344.959 25.7227 348.628 24.144C352.34 22.5227 356.287 21.712 360.468 21.712C364.692 21.712 368.66 22.5227 372.372 24.144C376.084 25.7227 379.305 27.8987 382.036 30.672C384.809 33.4453 386.985 36.688 388.564 40.4C390.143 44.0693 390.932 48.016 390.932 52.24C390.932 56.4213 390.143 60.368 388.564 64.08C386.985 67.792 384.809 71.0347 382.036 73.808C379.305 76.5813 376.084 78.7787 372.372 80.4C368.66 81.9787 364.692 82.768 360.468 82.768C357.396 82.768 354.452 82.3413 351.636 81.488C348.863 80.592 346.26 79.3547 343.828 77.776V96.4C343.828 97.424 343.657 98.3627 343.316 99.216C343.017 100.112 342.569 100.88 341.972 101.52C341.375 102.16 340.649 102.672 339.796 103.056C338.985 103.44 338.068 103.632 337.044 103.632C336.063 103.632 335.145 103.44 334.292 103.056C333.439 102.672 332.692 102.16 332.052 101.52C331.412 100.88 330.9 100.112 330.516 99.216C330.132 98.3627 329.94 97.424 329.94 96.4V52.24ZM343.828 52.24C343.828 54.5013 344.255 56.656 345.108 58.704C346.004 60.7093 347.199 62.48 348.692 64.016C350.228 65.5093 351.999 66.704 354.004 67.6C356.009 68.4533 358.164 68.88 360.468 68.88C362.772 68.88 364.927 68.4533 366.932 67.6C368.98 66.704 370.751 65.5093 372.244 64.016C373.737 62.48 374.911 60.7093 375.764 58.704C376.617 56.656 377.044 54.5013 377.044 52.24C377.044 49.936 376.617 47.7813 375.764 45.776C374.911 43.728 373.737 41.9573 372.244 40.464C370.751 38.9707 368.98 37.7973 366.932 36.944C364.927 36.048 362.772 35.6 360.468 35.6C358.207 35.6 356.052 36.048 354.004 36.944C351.999 37.7973 350.228 38.9707 348.692 40.464C347.199 41.9573 346.004 43.728 345.108 45.776C344.255 47.7813 343.828 49.936 343.828 52.24ZM415.83 74.64C415.83 75.664 415.638 76.624 415.254 77.52C414.87 78.416 414.337 79.2053 413.654 79.888C412.971 80.528 412.182 81.04 411.286 81.424C410.39 81.808 409.451 82 408.47 82C407.446 82 406.486 81.808 405.59 81.424C404.694 81.04 403.905 80.528 403.222 79.888C402.582 79.2053 402.07 78.416 401.686 77.52C401.302 76.624 401.11 75.664 401.11 74.64C401.11 73.6587 401.302 72.72 401.686 71.824C402.07 70.928 402.582 70.1387 403.222 69.456C403.905 68.7733 404.694 68.24 405.59 67.856C406.486 67.472 407.446 67.28 408.47 67.28C409.451 67.28 410.39 67.472 411.286 67.856C412.182 68.24 412.971 68.7733 413.654 69.456C414.337 70.1387 414.87 70.928 415.254 71.824C415.638 72.72 415.83 73.6587 415.83 74.64ZM401.302 7.12C401.302 6.13866 401.473 5.22133 401.814 4.368C402.198 3.51466 402.71 2.768 403.35 2.128C403.99 1.488 404.737 0.997332 405.59 0.655998C406.443 0.271996 407.339 0.0799942 408.278 0.0799942C409.259 0.0799942 410.155 0.271996 410.966 0.655998C411.819 0.997332 412.566 1.488 413.206 2.128C413.846 2.768 414.337 3.51466 414.678 4.368C415.062 5.22133 415.254 6.13866 415.254 7.12V54.864C415.254 55.8453 415.062 56.7627 414.678 57.616C414.337 58.4693 413.846 59.216 413.206 59.856C412.566 60.496 411.798 61.008 410.902 61.392C410.049 61.7333 409.131 61.904 408.15 61.904C407.211 61.904 406.315 61.7333 405.462 61.392C404.609 61.008 403.883 60.496 403.286 59.856C402.689 59.216 402.198 58.4693 401.814 57.616C401.473 56.7627 401.302 55.8453 401.302 54.864V7.12Z" fill="#6953DF"/>
</svg>
