<svg width="447" height="105" viewBox="0 0 447 105" fill="none" xmlns="http://www.w3.org/2000/svg">
<path d="M7.656 83C6.71733 83 5.82133 82.8293 4.968 82.488C4.11467 82.104 3.368 81.6133 2.728 81.016C2.13067 80.4187 1.64 79.6933 1.256 78.84C0.914667 77.9867 0.744 77.0907 0.744 76.152V7.92799C0.744 6.94666 0.914667 6.05066 1.256 5.24C1.64 4.38667 2.13067 3.66133 2.728 3.064C3.368 2.424 4.11467 1.93333 4.968 1.592C5.82133 1.25066 6.71733 1.07999 7.656 1.07999H37.032C40.1893 1.07999 43.1333 1.67733 45.864 2.87199C48.6373 4.06666 51.048 5.688 53.096 7.736C55.144 9.784 56.744 12.1947 57.896 14.968C59.0907 17.6987 59.688 20.6427 59.688 23.8C59.688 26.744 59.1547 29.56 58.088 32.248C57.064 34.936 55.6347 37.368 53.8 39.544C56.5307 41.8907 58.6853 44.728 60.264 48.056C61.8853 51.3413 62.696 54.904 62.696 58.744C62.696 62.1573 62.0347 65.336 60.712 68.28C59.432 71.224 57.6613 73.784 55.4 75.96C53.1813 78.136 50.5573 79.864 47.528 81.144C44.5413 82.3813 41.32 83 37.864 83H7.656ZM14.632 47.544V69.112H37.352C38.9307 69.112 40.4027 68.8133 41.768 68.216C43.176 67.576 44.392 66.7227 45.416 65.656C46.4827 64.5893 47.3147 63.3733 47.912 62.008C48.5093 60.6427 48.808 59.2133 48.808 57.72C48.808 56.184 48.488 54.7973 47.848 53.56C47.2507 52.28 46.4187 51.2133 45.352 50.36C44.328 49.464 43.112 48.7813 41.704 48.312C40.3387 47.8 38.888 47.544 37.352 47.544H14.632ZM14.632 14.968V33.656H36.52C37.8 33.6133 38.9947 33.336 40.104 32.824C41.256 32.2693 42.2373 31.5653 43.048 30.712C43.9013 29.8587 44.5627 28.8773 45.032 27.768C45.5013 26.616 45.736 25.4427 45.736 24.248C45.736 22.968 45.48 21.7733 44.968 20.664C44.456 19.5547 43.752 18.5733 42.856 17.72C42.0027 16.8667 41 16.2053 39.848 15.736C38.696 15.224 37.48 14.968 36.2 14.968H14.632ZM85.456 76.152C85.456 77.0907 85.2853 77.9867 84.944 78.84C84.6027 79.6933 84.112 80.4187 83.472 81.016C82.8747 81.6133 82.1707 82.104 81.36 82.488C80.5493 82.8293 79.6747 83 78.736 83C77.7547 83 76.816 82.8293 75.92 82.488C75.0667 82.104 74.32 81.6133 73.68 81.016C73.04 80.4187 72.528 79.6933 72.144 78.84C71.76 77.9867 71.568 77.0907 71.568 76.152V55.48C71.568 51.0853 72.4 46.9467 74.064 43.064C75.7707 39.1813 78.0747 35.7893 80.976 32.888C83.8773 29.9867 87.2693 27.704 91.152 26.04C95.0347 24.3333 99.152 23.48 103.504 23.48H103.632C105.936 23.48 107.707 24.1413 108.944 25.464C110.224 26.744 110.864 28.3867 110.864 30.392C110.864 31.3733 110.672 32.2907 110.288 33.144C109.904 33.9973 109.371 34.744 108.688 35.384C108.048 35.9813 107.28 36.472 106.384 36.856C105.531 37.1973 104.613 37.368 103.632 37.368H103.504C101.072 37.368 98.7467 37.8373 96.528 38.776C94.352 39.7147 92.4533 40.9947 90.832 42.616C89.2107 44.2373 87.9093 46.136 86.928 48.312C85.9467 50.488 85.456 52.8133 85.456 55.288V76.152ZM132.084 54.264C132.084 56.44 132.468 58.488 133.236 60.408C134.047 62.2853 135.135 63.928 136.5 65.336C137.908 66.744 139.551 67.8533 141.428 68.664C143.348 69.4747 145.396 69.88 147.572 69.88C149.791 69.88 151.775 69.4747 153.524 68.664C155.273 67.8107 156.745 66.68 157.94 65.272C159.177 63.8213 160.116 62.136 160.756 60.216C161.439 58.296 161.78 56.248 161.78 54.072V30.392C161.78 29.4107 161.972 28.5147 162.356 27.704C162.74 26.8507 163.252 26.1253 163.892 25.528C164.575 24.888 165.343 24.3973 166.196 24.056C167.049 23.672 167.945 23.48 168.884 23.48C169.865 23.48 170.761 23.672 171.572 24.056C172.383 24.3973 173.087 24.888 173.684 25.528C174.324 26.1253 174.815 26.8507 175.156 27.704C175.497 28.5147 175.668 29.4107 175.668 30.392V53.88C175.668 57.976 174.964 61.8373 173.556 65.464C172.191 69.0907 170.271 72.2693 167.796 75C165.321 77.688 162.356 79.8213 158.9 81.4C155.444 82.9787 151.668 83.768 147.572 83.768C143.476 83.768 139.636 83 136.052 81.464C132.511 79.8853 129.417 77.752 126.772 75.064C124.127 72.376 122.036 69.24 120.5 65.656C118.964 62.072 118.196 58.2533 118.196 54.2V30.392C118.196 29.4107 118.367 28.5147 118.708 27.704C119.092 26.8507 119.583 26.1253 120.18 25.528C120.82 24.888 121.567 24.3973 122.42 24.056C123.273 23.672 124.169 23.48 125.108 23.48C126.047 23.48 126.943 23.672 127.796 24.056C128.649 24.3973 129.396 24.888 130.036 25.528C130.676 26.1253 131.167 26.8507 131.508 27.704C131.892 28.5147 132.084 29.4107 132.084 30.392V54.264ZM236.671 67.32H200.063L195.263 78.84C194.666 80.2053 193.791 81.2507 192.639 81.976C191.53 82.6587 190.292 83 188.927 83C187.988 83 186.986 82.7867 185.919 82.36C184.98 81.976 184.212 81.464 183.615 80.824C183.018 80.1413 182.57 79.3947 182.271 78.584C182.015 77.7733 181.908 76.8987 181.951 75.96C182.036 75.0213 182.271 74.104 182.655 73.208L211.903 5.30399C212.5 3.93866 213.354 2.89333 214.463 2.168C215.572 1.44266 216.852 1.07999 218.303 1.07999C219.668 1.07999 220.906 1.44266 222.015 2.168C223.124 2.89333 223.978 3.91733 224.575 5.24L254.015 73.208C254.783 75 254.89 76.7707 254.335 78.52C253.823 80.2693 252.671 81.5493 250.879 82.36C249.983 82.7867 249.002 83 247.935 83C246.57 83 245.311 82.6373 244.159 81.912C243.007 81.1867 242.132 80.1627 241.535 78.84L236.671 67.32ZM205.631 53.432H230.911L218.367 23.288L205.631 53.432ZM260.69 53.24C260.69 49.016 261.501 45.0693 263.122 41.4C264.743 37.688 266.941 34.4453 269.714 31.672C272.487 28.8987 275.709 26.7227 279.378 25.144C283.09 23.5227 287.037 22.712 291.218 22.712C295.442 22.712 299.41 23.5227 303.122 25.144C306.834 26.7227 310.055 28.8987 312.786 31.672C315.559 34.4453 317.735 37.688 319.314 41.4C320.893 45.0693 321.682 49.016 321.682 53.24C321.682 57.4213 320.893 61.368 319.314 65.08C317.735 68.792 315.559 72.0347 312.786 74.808C310.055 77.5813 306.834 79.7787 303.122 81.4C299.41 82.9787 295.442 83.768 291.218 83.768C288.146 83.768 285.202 83.3413 282.386 82.488C279.613 81.592 277.01 80.3547 274.578 78.776V97.4C274.578 98.424 274.407 99.3627 274.066 100.216C273.767 101.112 273.319 101.88 272.722 102.52C272.125 103.16 271.399 103.672 270.546 104.056C269.735 104.44 268.818 104.632 267.794 104.632C266.813 104.632 265.895 104.44 265.042 104.056C264.189 103.672 263.442 103.16 262.802 102.52C262.162 101.88 261.65 101.112 261.266 100.216C260.882 99.3627 260.69 98.424 260.69 97.4V53.24ZM274.578 53.24C274.578 55.5013 275.005 57.656 275.858 59.704C276.754 61.7093 277.949 63.48 279.442 65.016C280.978 66.5093 282.749 67.704 284.754 68.6C286.759 69.4533 288.914 69.88 291.218 69.88C293.522 69.88 295.677 69.4533 297.682 68.6C299.73 67.704 301.501 66.5093 302.994 65.016C304.487 63.48 305.661 61.7093 306.514 59.704C307.367 57.656 307.794 55.5013 307.794 53.24C307.794 50.936 307.367 48.7813 306.514 46.776C305.661 44.728 304.487 42.9573 302.994 41.464C301.501 39.9707 299.73 38.7973 297.682 37.944C295.677 37.048 293.522 36.6 291.218 36.6C288.957 36.6 286.802 37.048 284.754 37.944C282.749 38.7973 280.978 39.9707 279.442 41.464C277.949 42.9573 276.754 44.728 275.858 46.776C275.005 48.7813 274.578 50.936 274.578 53.24ZM329.94 53.24C329.94 49.016 330.751 45.0693 332.372 41.4C333.993 37.688 336.191 34.4453 338.964 31.672C341.737 28.8987 344.959 26.7227 348.628 25.144C352.34 23.5227 356.287 22.712 360.468 22.712C364.692 22.712 368.66 23.5227 372.372 25.144C376.084 26.7227 379.305 28.8987 382.036 31.672C384.809 34.4453 386.985 37.688 388.564 41.4C390.143 45.0693 390.932 49.016 390.932 53.24C390.932 57.4213 390.143 61.368 388.564 65.08C386.985 68.792 384.809 72.0347 382.036 74.808C379.305 77.5813 376.084 79.7787 372.372 81.4C368.66 82.9787 364.692 83.768 360.468 83.768C357.396 83.768 354.452 83.3413 351.636 82.488C348.863 81.592 346.26 80.3547 343.828 78.776V97.4C343.828 98.424 343.657 99.3627 343.316 100.216C343.017 101.112 342.569 101.88 341.972 102.52C341.375 103.16 340.649 103.672 339.796 104.056C338.985 104.44 338.068 104.632 337.044 104.632C336.063 104.632 335.145 104.44 334.292 104.056C333.439 103.672 332.692 103.16 332.052 102.52C331.412 101.88 330.9 101.112 330.516 100.216C330.132 99.3627 329.94 98.424 329.94 97.4V53.24ZM343.828 53.24C343.828 55.5013 344.255 57.656 345.108 59.704C346.004 61.7093 347.199 63.48 348.692 65.016C350.228 66.5093 351.999 67.704 354.004 68.6C356.009 69.4533 358.164 69.88 360.468 69.88C362.772 69.88 364.927 69.4533 366.932 68.6C368.98 67.704 370.751 66.5093 372.244 65.016C373.737 63.48 374.911 61.7093 375.764 59.704C376.617 57.656 377.044 55.5013 377.044 53.24C377.044 50.936 376.617 48.7813 375.764 46.776C374.911 44.728 373.737 42.9573 372.244 41.464C370.751 39.9707 368.98 38.7973 366.932 37.944C364.927 37.048 362.772 36.6 360.468 36.6C358.207 36.6 356.052 37.048 354.004 37.944C351.999 38.7973 350.228 39.9707 348.692 41.464C347.199 42.9573 346.004 44.728 345.108 46.776C344.255 48.7813 343.828 50.936 343.828 53.24ZM394.941 25.912C394.984 22.4133 395.688 19.128 397.053 16.056C398.418 12.9413 400.274 10.232 402.621 7.92799C404.968 5.62399 407.698 3.81066 410.813 2.488C413.928 1.16533 417.234 0.503998 420.733 0.503998C424.274 0.503998 427.624 1.18666 430.781 2.55199C433.938 3.87466 436.69 5.70933 439.037 8.056C441.384 10.4027 443.24 13.1547 444.605 16.312C445.97 19.4267 446.653 22.7547 446.653 26.296C446.653 29.8373 445.949 33.144 444.541 36.216C443.176 39.288 441.32 41.976 438.973 44.28C436.626 46.5413 433.874 48.3333 430.717 49.656C427.602 50.9787 424.274 51.64 420.733 51.64V55.544C420.733 56.5253 420.562 57.464 420.221 58.36C419.88 59.2133 419.389 59.96 418.749 60.6C418.152 61.24 417.426 61.752 416.573 62.136C415.762 62.4773 414.866 62.648 413.885 62.648C412.904 62.648 411.965 62.4773 411.069 62.136C410.216 61.752 409.469 61.24 408.829 60.6C408.189 59.96 407.677 59.2133 407.293 58.36C406.952 57.464 406.781 56.5253 406.781 55.544V44.728C406.781 43.7467 406.973 42.8293 407.357 41.976C407.741 41.1227 408.253 40.3973 408.893 39.8C409.533 39.16 410.28 38.6693 411.133 38.328C411.986 37.944 412.904 37.752 413.885 37.752H420.797C422.376 37.752 423.89 37.4533 425.341 36.856C426.792 36.2587 428.05 35.448 429.117 34.424C430.226 33.4 431.101 32.184 431.741 30.776C432.424 29.368 432.765 27.8747 432.765 26.296C432.765 24.7173 432.466 23.2027 431.869 21.752C431.314 20.3013 430.525 19.0427 429.501 17.976C428.477 16.8667 427.218 15.992 425.725 15.352C424.274 14.712 422.653 14.392 420.861 14.392C419.282 14.392 417.768 14.6907 416.317 15.288C414.909 15.8427 413.65 16.6533 412.541 17.72C411.432 18.744 410.536 19.9813 409.853 21.432C409.213 22.84 408.872 24.376 408.829 26.04V26.296C408.829 27.2773 408.658 28.216 408.317 29.112C407.976 29.9653 407.506 30.712 406.909 31.352C406.312 31.992 405.608 32.504 404.797 32.888C403.986 33.272 403.09 33.464 402.109 33.464C401.128 33.464 400.189 33.272 399.293 32.888C398.44 32.504 397.693 31.992 397.053 31.352C396.413 30.712 395.901 29.9653 395.517 29.112C395.133 28.216 394.941 27.2773 394.941 26.296V25.912ZM406.397 76.344C406.397 75.32 406.589 74.36 406.973 73.464C407.357 72.5253 407.89 71.7147 408.573 71.032C409.256 70.3493 410.045 69.816 410.941 69.432C411.837 69.048 412.797 68.856 413.821 68.856C414.845 68.856 415.784 69.048 416.637 69.432C417.533 69.816 418.322 70.3493 419.005 71.032C419.688 71.7147 420.221 72.5253 420.605 73.464C420.989 74.36 421.181 75.32 421.181 76.344C421.181 77.3253 420.989 78.264 420.605 79.16C420.221 80.056 419.688 80.8453 419.005 81.528C418.322 82.168 417.533 82.68 416.637 83.064C415.784 83.4907 414.845 83.704 413.821 83.704C412.797 83.704 411.837 83.4907 410.941 83.064C410.045 82.68 409.256 82.168 408.573 81.528C407.89 80.8453 407.357 80.056 406.973 79.16C406.589 78.264 406.397 77.3253 406.397 76.344Z" fill="#6953DF"/>
</svg>
