<svg width="782" height="873" viewBox="0 0 782 873" fill="none" xmlns="http://www.w3.org/2000/svg">
<mask id="mask0_8_40" style="mask-type:alpha" maskUnits="userSpaceOnUse" x="0" y="0" width="782" height="873">
<rect width="782" height="873" fill="white"/>
</mask>
<g mask="url(#mask0_8_40)">
<rect x="1" y="-1" width="779" height="873" rx="74" fill="#6953DF"/>
<path d="M528.693 548.554C528.693 620.33 466.822 678.515 390.5 678.515C314.178 678.515 252.307 620.33 252.307 548.554C252.307 476.779 314.178 418.593 390.5 418.593C466.822 418.593 528.693 476.779 528.693 548.554Z" fill="white"/>
<path d="M121 97.3334C121 97.3334 121 68.4058 157.729 68.004C194.458 67.6023 194.458 97.3334 194.458 97.3334V548.122H121V97.3334Z" fill="white"/>
<path d="M322.092 329.649C322.092 310.573 338.536 295.108 358.821 295.108H401.06C421.345 295.108 437.789 310.573 437.789 329.649C437.789 348.726 421.345 364.191 401.06 364.191H358.821C338.536 364.191 322.092 348.726 322.092 329.649Z" fill="white"/>
<path d="M194.458 374.643C148.917 420.029 121 481.225 121 548.554C121 688.528 241.659 802 390.5 802C539.341 802 660 688.528 660 548.554C660 408.58 539.341 295.108 390.5 295.108C389.734 295.108 388.969 295.111 388.204 295.117V364.203C388.969 364.195 389.734 364.191 390.5 364.191C498.771 364.191 586.542 446.733 586.542 548.554C586.542 650.375 498.771 732.918 390.5 732.918C282.229 732.918 194.458 650.375 194.458 548.554C194.458 548.41 194.458 548.266 194.458 548.122V374.643Z" fill="white"/>
<path d="M494.215 158.826C490.685 148.477 489.327 138.065 490.139 127.591C490.906 116.991 493.542 107.073 498.047 97.8357C502.551 88.5984 508.699 80.4052 516.491 73.2558C524.283 66.1065 533.33 60.7044 543.635 57.0494C554.065 53.3499 564.642 51.8616 575.368 52.5844C586.049 53.1816 596.07 55.7101 605.433 60.1701C614.796 64.63 623.138 70.7964 630.457 78.6691C637.732 86.4161 643.219 95.5046 646.919 105.935C650.618 116.365 651.999 126.839 651.062 137.357C650.25 147.832 647.591 157.687 643.087 166.924C638.538 176.036 632.305 184.189 624.387 191.383C616.596 198.532 607.485 203.956 597.055 207.656L601.133 219.154C602.159 222.044 602.636 224.987 602.567 227.983C602.453 230.852 601.788 233.564 600.572 236.118C599.481 238.627 597.88 240.892 595.768 242.915C593.737 244.767 591.276 246.206 588.386 247.231C585.496 248.256 582.553 248.734 579.557 248.665C576.643 248.425 573.909 247.697 571.355 246.481C568.802 245.264 566.514 243.6 564.491 241.488C562.55 239.206 561.067 236.62 560.042 233.729L548.743 201.874C547.717 198.984 547.325 196.081 547.564 193.167C547.804 190.252 548.554 187.581 549.815 185.153C551.031 182.6 552.718 180.375 554.874 178.478C556.986 176.456 559.488 174.932 562.378 173.907L582.735 166.686C587.385 165.037 591.534 162.575 595.182 159.3C598.831 156.025 601.691 152.323 603.763 148.193C605.96 144.018 607.266 139.523 607.68 134.707C608.22 129.847 607.665 125.092 606.016 120.443C604.367 115.793 601.905 111.644 598.63 107.996C595.481 104.303 591.841 101.42 587.711 99.3486C583.536 97.1511 578.915 95.8899 573.849 95.565C568.907 95.1955 563.798 95.9468 558.52 97.8189C553.871 99.468 549.722 101.93 546.073 105.205C542.506 108.309 539.646 112.012 537.493 116.312C535.295 120.487 533.949 125.067 533.454 130.053C533.04 134.868 533.639 139.749 535.252 144.694L535.519 145.448C536.544 148.338 537.022 151.281 536.953 154.277C536.839 157.147 536.237 159.836 535.146 162.345C534.055 164.854 532.517 167.097 530.53 169.075C528.544 171.053 526.106 172.554 523.215 173.58C520.325 174.605 517.36 175.02 514.32 174.825C511.406 174.585 508.672 173.858 506.118 172.641C503.565 171.425 501.277 169.761 499.254 167.648C497.187 165.411 495.641 162.847 494.616 159.956L494.215 158.826ZM580.64 295.391C579.57 292.375 579.133 289.347 579.328 286.307C579.478 283.141 580.202 280.196 581.499 277.473C582.797 274.749 584.564 272.354 586.802 270.287C589.04 268.22 591.667 266.651 594.683 265.582C597.699 264.512 600.664 264.097 603.578 264.336C606.618 264.531 609.5 265.277 612.224 266.575C614.948 267.872 617.365 269.703 619.477 272.066C621.544 274.304 623.112 276.931 624.182 279.947C625.207 282.837 625.622 285.802 625.427 288.842C625.232 291.882 624.486 294.764 623.189 297.488C621.847 300.086 620.057 302.418 617.819 304.485C615.752 306.633 613.21 308.242 610.194 309.312C607.178 310.382 604.128 310.756 601.043 310.436C598.003 310.241 595.143 309.557 592.464 308.386C589.74 307.088 587.345 305.321 585.278 303.083C583.211 300.845 581.665 298.281 580.64 295.391Z" fill="white"/>
</g>
</svg>
