<svg width="305" height="194" viewBox="0 0 305 194" fill="none" xmlns="http://www.w3.org/2000/svg">
<path d="M41.28 13.968V75.152C41.28 76.0907 41.088 76.9867 40.704 77.84C40.3627 78.6933 39.872 79.4187 39.232 80.016C38.592 80.6133 37.8453 81.104 36.992 81.488C36.1387 81.8293 35.2213 82 34.24 82C33.3013 82 32.4053 81.8293 31.552 81.488C30.7413 81.104 30.016 80.6133 29.376 80.016C28.7787 79.4187 28.288 78.6933 27.904 77.84C27.5627 76.9867 27.392 76.0907 27.392 75.152V13.968H8.256C7.31733 13.968 6.42133 13.7973 5.568 13.456C4.71467 13.072 3.968 12.56 3.328 11.92C2.73067 11.28 2.24 10.5333 1.856 9.68C1.51467 8.82666 1.344 7.93066 1.344 6.992C1.344 6.01066 1.51467 5.11466 1.856 4.30399C2.24 3.45066 2.73067 2.72533 3.328 2.128C3.968 1.488 4.71467 0.997332 5.568 0.655998C6.42133 0.271996 7.31733 0.0799942 8.256 0.0799942H60.416C61.3973 0.0799942 62.2933 0.271996 63.104 0.655998C63.9573 0.997332 64.6827 1.488 65.28 2.128C65.92 2.768 66.4107 3.51466 66.752 4.368C67.136 5.17867 67.328 6.07467 67.328 7.056C67.328 8.03733 67.136 8.95467 66.752 9.808C66.4107 10.6187 65.92 11.344 65.28 11.984C64.6827 12.5813 63.9573 13.072 63.104 13.456C62.2933 13.7973 61.3973 13.968 60.416 13.968H41.28ZM72.209 53.264C72.209 55.44 72.593 57.488 73.361 59.408C74.1717 61.2853 75.2597 62.928 76.625 64.336C78.033 65.744 79.6757 66.8533 81.553 67.664C83.473 68.4747 85.521 68.88 87.697 68.88C89.9157 68.88 91.8997 68.4747 93.649 67.664C95.3983 66.8107 96.8703 65.68 98.065 64.272C99.3023 62.8213 100.241 61.136 100.881 59.216C101.564 57.296 101.905 55.248 101.905 53.072V29.392C101.905 28.4107 102.097 27.5147 102.481 26.704C102.865 25.8507 103.377 25.1253 104.017 24.528C104.7 23.888 105.468 23.3973 106.321 23.056C107.174 22.672 108.07 22.48 109.009 22.48C109.99 22.48 110.886 22.672 111.697 23.056C112.508 23.3973 113.212 23.888 113.809 24.528C114.449 25.1253 114.94 25.8507 115.281 26.704C115.622 27.5147 115.793 28.4107 115.793 29.392V52.88C115.793 56.976 115.089 60.8373 113.681 64.464C112.316 68.0907 110.396 71.2693 107.921 74C105.446 76.688 102.481 78.8213 99.025 80.4C95.569 81.9787 91.793 82.768 87.697 82.768C83.601 82.768 79.761 82 76.177 80.464C72.6357 78.8853 69.5423 76.752 66.897 74.064C64.2517 71.376 62.161 68.24 60.625 64.656C59.089 61.072 58.321 57.2533 58.321 53.2V29.392C58.321 28.4107 58.4917 27.5147 58.833 26.704C59.217 25.8507 59.7077 25.1253 60.305 24.528C60.945 23.888 61.6917 23.3973 62.545 23.056C63.3983 22.672 64.2943 22.48 65.233 22.48C66.1717 22.48 67.0677 22.672 67.921 23.056C68.7743 23.3973 69.521 23.888 70.161 24.528C70.801 25.1253 71.2917 25.8507 71.633 26.704C72.017 27.5147 72.209 28.4107 72.209 29.392V53.264ZM136.156 82C135.217 82 134.321 81.8293 133.468 81.488C132.615 81.104 131.868 80.6133 131.228 80.016C130.631 79.4187 130.14 78.6933 129.756 77.84C129.415 76.9867 129.244 76.0907 129.244 75.152V6.92799C129.244 5.94666 129.415 5.05066 129.756 4.24C130.14 3.38667 130.631 2.66133 131.228 2.064C131.868 1.424 132.615 0.933329 133.468 0.591995C134.321 0.250661 135.217 0.0799942 136.156 0.0799942H165.532C168.689 0.0799942 171.633 0.677327 174.364 1.87199C177.137 3.06666 179.548 4.688 181.596 6.736C183.644 8.784 185.244 11.1947 186.396 13.968C187.591 16.6987 188.188 19.6427 188.188 22.8C188.188 25.744 187.655 28.56 186.588 31.248C185.564 33.936 184.135 36.368 182.3 38.544C185.031 40.8907 187.185 43.728 188.764 47.056C190.385 50.3413 191.196 53.904 191.196 57.744C191.196 61.1573 190.535 64.336 189.212 67.28C187.932 70.224 186.161 72.784 183.9 74.96C181.681 77.136 179.057 78.864 176.028 80.144C173.041 81.3813 169.82 82 166.364 82H136.156ZM143.132 46.544V68.112H165.852C167.431 68.112 168.903 67.8133 170.268 67.216C171.676 66.576 172.892 65.7227 173.916 64.656C174.983 63.5893 175.815 62.3733 176.412 61.008C177.009 59.6427 177.308 58.2133 177.308 56.72C177.308 55.184 176.988 53.7973 176.348 52.56C175.751 51.28 174.919 50.2133 173.852 49.36C172.828 48.464 171.612 47.7813 170.204 47.312C168.839 46.8 167.388 46.544 165.852 46.544H143.132ZM143.132 13.968V32.656H165.02C166.3 32.6133 167.495 32.336 168.604 31.824C169.756 31.2693 170.737 30.5653 171.548 29.712C172.401 28.8587 173.063 27.8773 173.532 26.768C174.001 25.616 174.236 24.4427 174.236 23.248C174.236 21.968 173.98 20.7733 173.468 19.664C172.956 18.5547 172.252 17.5733 171.356 16.72C170.503 15.8667 169.5 15.2053 168.348 14.736C167.196 14.224 165.98 13.968 164.7 13.968H143.132ZM213.956 75.152C213.956 76.0907 213.785 76.9867 213.444 77.84C213.103 78.6933 212.612 79.4187 211.972 80.016C211.375 80.6133 210.671 81.104 209.86 81.488C209.049 81.8293 208.175 82 207.236 82C206.255 82 205.316 81.8293 204.42 81.488C203.567 81.104 202.82 80.6133 202.18 80.016C201.54 79.4187 201.028 78.6933 200.644 77.84C200.26 76.9867 200.068 76.0907 200.068 75.152V54.48C200.068 50.0853 200.9 45.9467 202.564 42.064C204.271 38.1813 206.575 34.7893 209.476 31.888C212.377 28.9867 215.769 26.704 219.652 25.04C223.535 23.3333 227.652 22.48 232.004 22.48H232.132C234.436 22.48 236.207 23.1413 237.444 24.464C238.724 25.744 239.364 27.3867 239.364 29.392C239.364 30.3733 239.172 31.2907 238.788 32.144C238.404 32.9973 237.871 33.744 237.188 34.384C236.548 34.9813 235.78 35.472 234.884 35.856C234.031 36.1973 233.113 36.368 232.132 36.368H232.004C229.572 36.368 227.247 36.8373 225.028 37.776C222.852 38.7147 220.953 39.9947 219.332 41.616C217.711 43.2373 216.409 45.136 215.428 47.312C214.447 49.488 213.956 51.8133 213.956 54.288V75.152ZM260.584 53.264C260.584 55.44 260.968 57.488 261.736 59.408C262.547 61.2853 263.635 62.928 265 64.336C266.408 65.744 268.051 66.8533 269.928 67.664C271.848 68.4747 273.896 68.88 276.072 68.88C278.291 68.88 280.275 68.4747 282.024 67.664C283.773 66.8107 285.245 65.68 286.44 64.272C287.677 62.8213 288.616 61.136 289.256 59.216C289.939 57.296 290.28 55.248 290.28 53.072V29.392C290.28 28.4107 290.472 27.5147 290.856 26.704C291.24 25.8507 291.752 25.1253 292.392 24.528C293.075 23.888 293.843 23.3973 294.696 23.056C295.549 22.672 296.445 22.48 297.384 22.48C298.365 22.48 299.261 22.672 300.072 23.056C300.883 23.3973 301.587 23.888 302.184 24.528C302.824 25.1253 303.315 25.8507 303.656 26.704C303.997 27.5147 304.168 28.4107 304.168 29.392V52.88C304.168 56.976 303.464 60.8373 302.056 64.464C300.691 68.0907 298.771 71.2693 296.296 74C293.821 76.688 290.856 78.8213 287.4 80.4C283.944 81.9787 280.168 82.768 276.072 82.768C271.976 82.768 268.136 82 264.552 80.464C261.011 78.8853 257.917 76.752 255.272 74.064C252.627 71.376 250.536 68.24 249 64.656C247.464 61.072 246.696 57.2533 246.696 53.2V29.392C246.696 28.4107 246.867 27.5147 247.208 26.704C247.592 25.8507 248.083 25.1253 248.68 24.528C249.32 23.888 250.067 23.3973 250.92 23.056C251.773 22.672 252.669 22.48 253.608 22.48C254.547 22.48 255.443 22.672 256.296 23.056C257.149 23.3973 257.896 23.888 258.536 24.528C259.176 25.1253 259.667 25.8507 260.008 26.704C260.392 27.5147 260.584 28.4107 260.584 29.392V53.264ZM55.296 178.32H18.688L13.888 189.84C13.2907 191.205 12.416 192.251 11.264 192.976C10.1547 193.659 8.91733 194 7.552 194C6.61333 194 5.61067 193.787 4.544 193.36C3.60533 192.976 2.83733 192.464 2.24 191.824C1.64267 191.141 1.19467 190.395 0.896 189.584C0.64 188.773 0.533333 187.899 0.576 186.96C0.661333 186.021 0.896 185.104 1.28 184.208L30.528 116.304C31.1253 114.939 31.9787 113.893 33.088 113.168C34.1973 112.443 35.4773 112.08 36.928 112.08C38.2933 112.08 39.5307 112.443 40.64 113.168C41.7493 113.893 42.6027 114.917 43.2 116.24L72.64 184.208C73.408 186 73.5147 187.771 72.96 189.52C72.448 191.269 71.296 192.549 69.504 193.36C68.608 193.787 67.6267 194 66.56 194C65.1947 194 63.936 193.637 62.784 192.912C61.632 192.187 60.7573 191.163 60.16 189.84L55.296 178.32ZM24.256 164.432H49.536L36.992 134.288L24.256 164.432ZM112.019 112.08C116.286 112.08 120.275 112.891 123.987 114.512C127.699 116.091 130.942 118.267 133.715 121.04C136.488 123.771 138.664 127.013 140.243 130.768C141.864 134.48 142.675 138.448 142.675 142.672C142.675 146.896 141.864 150.843 140.243 154.512C138.664 158.181 136.488 161.403 133.715 164.176C130.942 166.907 127.678 169.061 123.923 170.64C120.211 172.219 116.222 173.008 111.955 173.008H95.507V187.152C95.507 188.091 95.315 188.987 94.931 189.84C94.5897 190.693 94.099 191.419 93.459 192.016C92.819 192.613 92.0723 193.104 91.219 193.488C90.4083 193.829 89.5123 194 88.531 194C87.5923 194 86.6963 193.829 85.843 193.488C84.9897 193.104 84.243 192.613 83.603 192.016C83.0057 191.419 82.515 190.693 82.131 189.84C81.7897 188.987 81.619 188.091 81.619 187.152V119.056C81.619 118.075 81.7897 117.157 82.131 116.304C82.515 115.451 83.0057 114.725 83.603 114.128C84.243 113.488 84.9897 112.997 85.843 112.656C86.6963 112.272 87.5923 112.08 88.531 112.08H112.019ZM95.507 125.968V159.12H112.211C114.515 159.12 116.67 158.672 118.675 157.776C120.723 156.88 122.494 155.685 123.987 154.192C125.48 152.656 126.654 150.907 127.507 148.944C128.36 146.939 128.787 144.848 128.787 142.672C128.787 140.496 128.339 138.405 127.443 136.4C126.59 134.395 125.416 132.624 123.923 131.088C122.43 129.509 120.68 128.272 118.675 127.376C116.67 126.437 114.515 125.968 112.211 125.968H95.507ZM184.019 112.08C188.286 112.08 192.275 112.891 195.987 114.512C199.699 116.091 202.942 118.267 205.715 121.04C208.488 123.771 210.664 127.013 212.243 130.768C213.864 134.48 214.675 138.448 214.675 142.672C214.675 146.896 213.864 150.843 212.243 154.512C210.664 158.181 208.488 161.403 205.715 164.176C202.942 166.907 199.678 169.061 195.923 170.64C192.211 172.219 188.222 173.008 183.955 173.008H167.507V187.152C167.507 188.091 167.315 188.987 166.931 189.84C166.59 190.693 166.099 191.419 165.459 192.016C164.819 192.613 164.072 193.104 163.219 193.488C162.408 193.829 161.512 194 160.531 194C159.592 194 158.696 193.829 157.843 193.488C156.99 193.104 156.243 192.613 155.603 192.016C155.006 191.419 154.515 190.693 154.131 189.84C153.79 188.987 153.619 188.091 153.619 187.152V119.056C153.619 118.075 153.79 117.157 154.131 116.304C154.515 115.451 155.006 114.725 155.603 114.128C156.243 113.488 156.99 112.997 157.843 112.656C158.696 112.272 159.592 112.08 160.531 112.08H184.019ZM167.507 125.968V159.12H184.211C186.515 159.12 188.67 158.672 190.675 157.776C192.723 156.88 194.494 155.685 195.987 154.192C197.48 152.656 198.654 150.907 199.507 148.944C200.36 146.939 200.787 144.848 200.787 142.672C200.787 140.496 200.339 138.405 199.443 136.4C198.59 134.395 197.416 132.624 195.923 131.088C194.43 129.509 192.68 128.272 190.675 127.376C188.67 126.437 186.515 125.968 184.211 125.968H167.507Z" fill="#6953DF"/>
</svg>
