<svg width="587" height="850" viewBox="0 0 587 850" fill="none" xmlns="http://www.w3.org/2000/svg">
<path d="M444 556.5C444 639.619 376.619 707 293.5 707C210.381 707 143 639.619 143 556.5C143 473.381 210.381 406 293.5 406C376.619 406 444 473.381 444 556.5Z" fill="#6953DF"/>
<path d="M0 33.9692C0 33.9692 2.28882e-05 0.469884 40 0.0046723C80 -0.460539 80 33.9692 80 33.9692V556H0V33.9692Z" fill="#6953DF"/>
<path d="M219 303C219 280.909 236.909 263 259 263H305C327.091 263 345 280.909 345 303C345 325.091 327.091 343 305 343H259C236.909 343 219 325.091 219 303Z" fill="#6953DF"/>
<path d="M80 355.104C30.4028 407.663 0 478.531 0 556.5C0 718.596 131.404 850 293.5 850C455.596 850 587 718.596 587 556.5C587 394.404 455.596 263 293.5 263C292.666 263 291.833 263.003 291 263.01V343.014C291.832 343.005 292.666 343 293.5 343C411.413 343 507 438.587 507 556.5C507 674.413 411.413 770 293.5 770C175.587 770 80 674.413 80 556.5C80 556.333 79.9996 556.167 80 556V355.104Z" fill="#6953DF"/>
</svg>
